<svg width="3000" height="1500" viewBox="0 0 3000 1500" fill="none" xmlns="http://www.w3.org/2000/svg">
    <rect width="3000" height="1500" rx="25" fill="#CC4444"/>
    <path d="M1375 400H1125C1111.19 400 1100 411.193 1100 425V475C1100 488.807 1111.19 500 1125 500H1200L1200 875C1200 888.807 1211.19 900 1225 900H1275C1288.81 900 1300 888.807 1300 875V500H1375C1388.81 500 1400 488.807 1400 475V425C1400 411.193 1388.81 400 1375 400Z" fill="white"/>
    <path fill-rule="evenodd" clip-rule="evenodd" d="M1450 550C1450 467.157 1517.16 400 1600 400C1682.84 400 1750 467.157 1750 550V750C1750 832.843 1682.84 900 1600 900C1517.16 900 1450 832.843 1450 750V550ZM1600 500C1572.39 500 1550 522.386 1550 550V750C1550 777.614 1572.39 800 1600 800C1627.61 800 1650 777.614 1650 750V550C1650 522.386 1627.61 500 1600 500Z" fill="white"/>
    <path d="M1925 400H1875C1861.19 400 1850 411.193 1850 425V875C1850 888.807 1861.19 900 1875 900H1925C1938.81 900 1950 888.807 1950 875V661.803L2052.63 886.183C2056.74 894.376 2065.21 900 2075 900H2125C2138.81 900 2150 888.807 2150 875V425C2150 411.193 2138.81 400 2125 400H2075C2061.19 400 2050 411.193 2050 425V638.197L1947.07 413.246C1942.86 405.364 1934.56 400 1925 400Z" fill="white"/>
    <path d="M950 425C950 411.193 961.193 400 975 400H1025C1038.81 400 1050 411.193 1050 425V475C1050 488.807 1038.81 500 1025 500H975C961.193 500 950 488.807 950 475V425Z" fill="white"/>
    <path fill-rule="evenodd" clip-rule="evenodd" d="M1075 1025V1075C1075 1088.81 1086.19 1100 1100 1100H2125C2138.81 1100 2150 1088.81 2150 1075V1025C2150 1011.19 2138.81 1000 2125 1000H1100C1086.19 1000 1075 1011.19 1075 1025Z" fill="white"/>
    <path fill-rule="evenodd" clip-rule="evenodd" d="M1025 550H975C961.193 550 950 561.193 950 575V1150C950 1177.61 927.614 1200 900 1200C872.386 1200 850 1177.61 850 1150C850 1122.39 872.386 1100 900 1100C913.807 1100 925 1088.81 925 1075V1025C925 1011.19 913.807 1000 900 1000C817.157 1000 750 1067.16 750 1150C750 1232.84 817.157 1300 900 1300C982.843 1300 1050 1232.84 1050 1150V575C1050 561.193 1038.81 550 1025 550Z" fill="white"/>
</svg>
